<?xml version="1.0" encoding="UTF-8" standalone="no"?>
<!DOCTYPE svg PUBLIC "-//W3C//DTD SVG 1.1//EN" "http://www.w3.org/Graphics/SVG/1.1/DTD/svg11.dtd">
<svg width="100%" height="100%" viewBox="0 0 128 32" version="1.1" xmlns="http://www.w3.org/2000/svg" xmlns:xlink="http://www.w3.org/1999/xlink" xml:space="preserve" xmlns:serif="http://www.serif.com/" style="fill-rule:evenodd;clip-rule:evenodd;stroke-linecap:round;stroke-linejoin:round;stroke-miterlimit:1.5;">
    <g transform="matrix(0.982799,0,0,1.7957,9.88746,-15.8102)">
        <path d="M5.558,20.856L5.558,15.113L103.395,15.113L103.395,9.781L118.385,17.985L103.395,26.189L103.395,20.856L5.558,20.856Z" style="fill:rgb(235,235,235);stroke:black;stroke-width:0.59px;"/>
    </g>
    <g transform="matrix(6.12323e-17,1,-1,6.12323e-17,25.6595,11.6334)">
        <path d="M4.852,12.957C6.057,13.383 7.035,15.529 7.035,18.073C7.035,20.617 6.057,22.763 4.852,23.19C3.647,22.763 2.669,20.617 2.669,18.073C2.669,15.529 3.647,13.383 4.852,12.957Z" style="fill:rgb(235,235,235);stroke:black;stroke-width:0.92px;"/>
    </g>
    <g transform="matrix(1,0,0,1,0.220538,-0.35286)">
        <ellipse cx="7.366" cy="16.838" rx="1.191" ry="1.059"/>
    </g>
    <g transform="matrix(1,0,0,1,0.441075,0.551344)">
        <path d="M3.892,13.3L2.47,11.205" style="fill:none;stroke:black;stroke-width:0.92px;"/>
    </g>
    <path d="M7.586,13.3L7.586,11.205" style="fill:none;stroke:black;stroke-width:0.92px;"/>
    <g transform="matrix(1,0,0,1,0.110269,0.551344)">
        <path d="M11.281,13.3L12.703,11.205" style="fill:none;stroke:black;stroke-width:0.92px;"/>
    </g>
</svg>
